<svg width="40" height="40" viewBox="0 0 40 40" fill="none" xmlns="http://www.w3.org/2000/svg">
<path d="M22.4912 15.1284V25.8914L27.8324 15.1071L22.4912 15.1284Z" fill="black"/>
<path d="M28.8835 15.0961L26.2197 20.4679L28.7369 25.8393L31.5683 20.4823L28.8835 15.0961Z" fill="black"/>
<path d="M35.3146 15.0961L32.6509 20.4679L35.168 25.8393L38 20.4823L35.3146 15.0961Z" fill="black"/>
<path d="M23.5449 25.8394L25.702 21.5299L27.8433 25.826L23.5449 25.8394Z" fill="black"/>
<path d="M29.9761 25.8394L32.1331 21.5299L34.2744 25.826L29.9761 25.8394Z" fill="black"/>
<path d="M34.2744 15.1417L32.1174 19.4512L29.9761 15.1551L34.2744 15.1417Z" fill="black"/>
<path d="M12.3044 21.3749H13.5347L12.9198 18.7056L12.3044 21.3749Z" fill="black"/>
<path d="M2 15.1282V25.8907H22.4913V15.1282H2ZM7.51784 21.7886H6.87834V23.6306H4.98643V17.3392H7.50898C9.49633 17.3392 10.3621 18.1214 10.3621 19.5775C10.3611 21.0704 9.40041 21.7886 7.51784 21.7886ZM19.5698 23.6306L18.705 21.4558L17.8688 23.6306H14.1051L13.8911 22.8127H11.948L11.7341 23.6306H9.82641L11.7783 17.3392H14.114L15.9473 23.2224L17.5992 20.2768L15.8342 17.3392H17.947L18.7222 19.0473L19.4601 17.3392H21.5104L19.8187 20.1776L21.7864 23.6286L19.5698 23.6306Z" fill="black"/>
<path d="M7.61581 18.8386H6.87793V20.3216H7.56415C8.09887 20.3216 8.42009 20.1599 8.42009 19.5394C8.41665 19.0921 8.15937 18.8386 7.61581 18.8386Z" fill="black"/>
</svg>
