<svg width="40" height="40" viewBox="0 0 40 40" fill="none" xmlns="http://www.w3.org/2000/svg">
<g clip-path="url(#clip0_435_4)">
<rect width="40" height="40" rx="6" fill="white"/>
<path d="M22.5251 14.7436V25.6982L27.9614 14.7219L22.5251 14.7436Z" fill="black"/>
<path d="M29.0309 14.7107L26.3198 20.1781L28.8817 25.645L31.7636 20.1928L29.0309 14.7107Z" fill="black"/>
<path d="M35.5766 14.7107L32.8655 20.1781L35.4274 25.645L38.3097 20.1928L35.5766 14.7107Z" fill="black"/>
<path d="M23.5977 25.6452L25.7931 21.259L27.9725 25.6316L23.5977 25.6452Z" fill="black"/>
<path d="M30.1433 25.6452L32.3387 21.259L34.5181 25.6316L30.1433 25.6452Z" fill="black"/>
<path d="M34.5181 14.7572L32.3227 19.1434L30.1433 14.7708L34.5181 14.7572Z" fill="black"/>
<path d="M12.157 21.1013H13.4092L12.7833 18.3845L12.157 21.1013Z" fill="black"/>
<path d="M-0.5 14.7434V25.6974H22.5253V14.7434H-0.5ZM7.28543 21.5223H6.63456V23.3971H4.70899V16.9938H7.27642C9.29912 16.9938 10.1803 17.7898 10.1803 19.2719C10.1793 20.7913 9.20149 21.5223 7.28543 21.5223ZM19.5518 23.3971L18.6716 21.1836L17.8205 23.3971H13.9899L13.7721 22.5647H11.7945L11.5767 23.3971H9.63507L11.6217 16.9938H13.9989L15.8649 22.9816L17.5461 19.9837L15.7497 16.9938H17.9001L18.6892 18.7323L19.4402 16.9938H21.5269L19.8051 19.8827L21.8078 23.3951L19.5518 23.3971Z" fill="black"/>
<path d="M7.38504 18.5199H6.63403V20.0292H7.33247C7.87669 20.0292 8.20363 19.8647 8.20363 19.2332C8.20012 18.7778 7.93827 18.5199 7.38504 18.5199Z" fill="black"/>
</g>
<defs>
<clipPath id="clip0_435_4">
<rect width="40" height="40" rx="6" fill="white"/>
</clipPath>
</defs>
</svg>
