<svg width="40" height="40" viewBox="0 0 40 40" fill="none" xmlns="http://www.w3.org/2000/svg">
<path d="M22.4912 14.4326V25.1956L27.8324 14.4113L22.4912 14.4326Z" fill="white" fill-opacity="0.95"/>
<path d="M28.8835 14.4003L26.2197 19.7721L28.7369 25.1435L31.5683 19.7865L28.8835 14.4003Z" fill="white" fill-opacity="0.95"/>
<path d="M35.3146 14.4003L32.6509 19.7721L35.168 25.1435L38 19.7865L35.3146 14.4003Z" fill="white" fill-opacity="0.95"/>
<path d="M23.5449 25.1436L25.702 20.8341L27.8433 25.1302L23.5449 25.1436Z" fill="white" fill-opacity="0.95"/>
<path d="M29.9761 25.1436L32.1331 20.8341L34.2744 25.1302L29.9761 25.1436Z" fill="white" fill-opacity="0.95"/>
<path d="M34.2744 14.4459L32.1174 18.7554L29.9761 14.4593L34.2744 14.4459Z" fill="white" fill-opacity="0.95"/>
<path d="M12.3044 20.6791H13.5347L12.9198 18.0098L12.3044 20.6791Z" fill="white" fill-opacity="0.95"/>
<path d="M2 14.4324V25.1949H22.4913V14.4324H2ZM7.51784 21.0928H6.87834V22.9348H4.98643V16.6434H7.50898C9.49633 16.6434 10.3621 17.4256 10.3621 18.8817C10.3611 20.3746 9.40041 21.0928 7.51784 21.0928ZM19.5698 22.9348L18.705 20.76L17.8688 22.9348H14.1051L13.8911 22.1169H11.948L11.7341 22.9348H9.82641L11.7783 16.6434H14.114L15.9473 22.5266L17.5992 19.581L15.8342 16.6434H17.947L18.7222 18.3515L19.4601 16.6434H21.5104L19.8187 19.4818L21.7864 22.9328L19.5698 22.9348Z" fill="white" fill-opacity="0.95"/>
<path d="M7.61581 18.1428H6.87793V19.6258H7.56415C8.09887 19.6258 8.42009 19.4641 8.42009 18.8436C8.41665 18.3963 8.15937 18.1428 7.61581 18.1428Z" fill="white" fill-opacity="0.95"/>
</svg>
